<svg width="15" height="15" viewBox="0 0 15 15" fill="none" xmlns="http://www.w3.org/2000/svg">
<path d="M14.824 2.57589L12.4241 0.175966C12.3684 0.120182 12.3022 0.0759282 12.2294 0.0457346C12.1565 0.015541 12.0785 0 11.9996 0C11.9208 0 11.8427 0.015541 11.7699 0.0457346C11.697 0.0759282 11.6309 0.120182 11.5751 0.175966L4.37536 7.37574C4.31966 7.4315 4.2755 7.49769 4.24539 7.57052C4.21527 7.64336 4.19981 7.72141 4.19987 7.80023V10.2002C4.19987 10.3593 4.26308 10.5119 4.3756 10.6244C4.48812 10.7369 4.64072 10.8001 4.79985 10.8001H7.19977C7.27859 10.8002 7.35664 10.7847 7.42948 10.7546C7.50231 10.7245 7.5685 10.6803 7.62426 10.6246L14.824 3.42486C14.8798 3.36914 14.9241 3.30297 14.9543 3.23013C14.9845 3.1573 15 3.07922 15 3.00038C15 2.92153 14.9845 2.84346 14.9543 2.77062C14.9241 2.69778 14.8798 2.63161 14.824 2.57589ZM6.95153 9.60017H5.39983V8.04847L10.1997 3.24862L11.7514 4.80032L6.95153 9.60017ZM12.5996 3.9521L11.0479 2.4004L11.9996 1.44868L13.5513 3.00038L12.5996 3.9521ZM14.3995 7.80023V13.8C14.3995 14.1183 14.2731 14.4235 14.0481 14.6485C13.823 14.8736 13.5178 15 13.1996 15H1.19996C0.881712 15 0.576497 14.8736 0.351461 14.6485C0.126424 14.4235 0 14.1183 0 13.8V1.80042C0 1.48217 0.126424 1.17695 0.351461 0.951914C0.576497 0.726877 0.881712 0.600453 1.19996 0.600453H7.19977C7.3589 0.600453 7.51151 0.663665 7.62402 0.776184C7.73654 0.888702 7.79975 1.04131 7.79975 1.20043C7.79975 1.35956 7.73654 1.51217 7.62402 1.62468C7.51151 1.7372 7.3589 1.80042 7.19977 1.80042H1.19996V13.8H13.1996V7.80023C13.1996 7.6411 13.2628 7.48849 13.3753 7.37598C13.4878 7.26346 13.6404 7.20025 13.7996 7.20025C13.9587 7.20025 14.1113 7.26346 14.2238 7.37598C14.3363 7.48849 14.3995 7.6411 14.3995 7.80023Z" fill="#012F72"/>
</svg>
